<?xml version="1.0" encoding="UTF-8" standalone="no"?>
<!-- Generator: Adobe Illustrator 21.1.0, SVG Export Plug-In . SVG Version: 6.00 Build 0)  -->
<svg
	xmlns:dc="http://purl.org/dc/elements/1.1/"
	xmlns:cc="http://creativecommons.org/ns#"
	xmlns:rdf="http://www.w3.org/1999/02/22-rdf-syntax-ns#"
	xmlns:svg="http://www.w3.org/2000/svg"
	xmlns="http://www.w3.org/2000/svg"
	xmlns:sodipodi="http://sodipodi.sourceforge.net/DTD/sodipodi-0.dtd"
	xmlns:inkscape="http://www.inkscape.org/namespaces/inkscape"
	version="1.1"
	id="Layer_1"
	x="0px"
	y="0px"
	viewBox="0 0 930 287.3"
	style="enable-background:new 0 0 930 287.3;"
	xml:space="preserve"
	inkscape:version="0.48.5 r10040"
	width="100%"
	height="100%"
	sodipodi:docname="reactive-traits.svg">
	<metadata id="metadata3184">
		<rdf:RDF>
			<cc:Work rdf:about="">
				<dc:format>image/svg+xml</dc:format>
				<dc:type rdf:resource="http://purl.org/dc/dcmitype/StillImage" />
			</cc:Work>
		</rdf:RDF>
	</metadata>
	<defs id="defs3182" />
	<sodipodi:namedview
		pagecolor="#ffffff"
		bordercolor="#666666"
		borderopacity="1"
		objecttolerance="10"
		gridtolerance="10"
		guidetolerance="10"
		inkscape:pageopacity="0"
		inkscape:pageshadow="2"
		inkscape:window-width="1600"
		inkscape:window-height="837"
		id="namedview3180"
		showgrid="false"
		inkscape:zoom="0.9983453"
		inkscape:cx="456.06116"
		inkscape:cy="75.729276"
		inkscape:window-x="0"
		inkscape:window-y="27"
		inkscape:window-maximized="1"
		inkscape:current-layer="Layer_1" />
	<style type="text/css" id="style3104">
		.st0{fill:none;stroke:#AFB4C6;stroke-width:2;stroke-miterlimit:10;stroke-dasharray:5;}
		.st1{fill:#61c2ac;}
		.st2{font-family:'Lato';font-weight:bold}
		.st3{font-size:32px;}
		.st4{opacity:0.4;fill:#61c2ac;enable-background:new    ;}
		.st5{opacity:0.6;fill:#61c2ac;enable-background:new    ;}
		.st6{fill:#FFFFFF;}
		.st7{font-family:'Lato';}
		.st8{font-family:'Lato';font-weight:medium}
		.st9{fill:none;stroke:#61c2ac;stroke-width:1.9399;stroke-miterlimit:10;}
	</style>
	<g id="g3186" transform="translate(77.50004,-5.6500061)">
		<g transform="translate(-149.80004,5.3000122)" id="Layer_1_1_">
			<g id="g3137">
				<path
					style="opacity:0.4;fill:#61c2ac;enable-background:new"
					inkscape:connector-curvature="0"
					id="path3139"
					d="m 431.8,73 c -8.8,0 -16,-7.2 -16,-16 V 22 c 0,-8.8 7.2,-16 16,-16 h 212 c 8.8,0 16,7.2 16,16 v 35 c 0,8.8 -7.2,16 -16,16 h -212 z"
					class="st4" />
				<path
					style="opacity:0.6;fill:#61c2ac;enable-background:new"
					inkscape:connector-curvature="0"
					id="path3141"
					d="m 431.8,69 c -6.6,0 -12,-5.4 -12,-12 V 22 c 0,-6.6 5.4,-12 12,-12 h 212 c 6.6,0 12,5.4 12,12 v 35 c 0,6.6 -5.4,12 -12,12 h -212 z"
					class="st5" />
				<path
					style="fill:#61c2ac"
					inkscape:connector-curvature="0"
					id="path3143"
					d="m 643.8,14 h -212 c -4.4,0 -8,3.6 -8,8 v 35 c 0,4.4 3.6,8 8,8 h 212 c 4.4,0 8,-3.6 8,-8 V 22 c 0,-4.5 -3.6,-8 -8,-8 z"
					class="st1" />
				<text
					style="font-size:32px;fill:#ffffff;font-family:Lato"
					id="text3145"
					class="st6 st7 st3"
					transform="translate(460,47.97)">Responsive</text>
			</g>
			<g id="g3147">
				<path
					style="opacity:0.4;fill:#61c2ac;enable-background:new"
					inkscape:connector-curvature="0"
					id="path3149"
					d="m 696.8,177 c -8.8,0 -16,-7.2 -16,-16 v -35 c 0,-8.8 7.2,-16 16,-16 h 212 c 8.8,0 16,7.2 16,16 v 35 c 0,8.8 -7.2,16 -16,16 h -212 z"
					class="st4" />
				<path
					style="opacity:0.6;fill:#61c2ac;enable-background:new"
					inkscape:connector-curvature="0"
					id="path3151"
					d="m 696.8,173 c -6.6,0 -12,-5.4 -12,-12 v -35 c 0,-6.6 5.4,-12 12,-12 h 212 c 6.6,0 12,5.4 12,12 v 35 c 0,6.6 -5.4,12 -12,12 h -212 z"
					class="st5" />
				<path
					style="fill:#61c2ac"
					inkscape:connector-curvature="0"
					id="path3153"
					d="m 908.8,118 h -212 c -4.4,0 -8,3.6 -8,8 v 35 c 0,4.4 3.6,8 8,8 h 212 c 4.4,0 8,-3.6 8,-8 v -35 c 0,-4.5 -3.6,-8 -8,-8 z"
					class="st1" />
				<text
					style="font-size:32px;fill:#ffffff;font-family:Lato;"
					id="text3155"
					class="st6 st8 st3"
					transform="translate(745,154.23)">Resilient</text>
			</g>
			<g id="g3157">
				<path
					style="opacity:0.4;fill:#61c2ac;enable-background:new"
					inkscape:connector-curvature="0"
					id="path3159"
					d="m 431.8,282 c -8.8,0 -16,-7.2 -16,-16 v -35 c 0,-8.8 7.2,-16 16,-16 h 212 c 8.8,0 16,7.2 16,16 v 35 c 0,8.8 -7.2,16 -16,16 h -212 z"
					class="st4" />
				<path
					style="opacity:0.6;fill:#61c2ac;enable-background:new"
					inkscape:connector-curvature="0"
					id="path3161"
					d="m 431.8,278 c -6.6,0 -12,-5.4 -12,-12 v -35 c 0,-6.6 5.4,-12 12,-12 h 212 c 6.6,0 12,5.4 12,12 v 35 c 0,6.6 -5.4,12 -12,12 h -212 z"
					class="st5" />
				<path
					style="fill:#61c2ac"
					inkscape:connector-curvature="0"
					id="path3163"
					d="m 643.8,223 h -212 c -4.4,0 -8,3.6 -8,8 v 35 c 0,4.4 3.6,8 8,8 h 212 c 4.4,0 8,-3.6 8,-8 v -35 c 0,-4.5 -3.6,-8 -8,-8 z"
					class="st1" />
				<text
					style="font-size:32px;fill:#ffffff;font-family:Lato;"
					id="text3165"
					class="st6 st8 st3"
					transform="translate(450,258.97)">Event Driven</text>
			</g>
			<g id="g3167">
				<path
					style="opacity:0.4;fill:#61c2ac;enable-background:new"
					inkscape:connector-curvature="0"
					id="path3169"
					d="m 165.8,177 c -8.8,0 -16,-7.2 -16,-16 v -35 c 0,-8.8 7.2,-16 16,-16 h 212 c 8.8,0 16,7.2 16,16 v 35 c 0,8.8 -7.2,16 -16,16 h -212 z"
					class="st4" />
				<path
					style="opacity:0.6;fill:#61c2ac;enable-background:new"
					inkscape:connector-curvature="0"
					id="path3171"
					d="m 165.8,173 c -6.6,0 -12,-5.4 -12,-12 v -35 c 0,-6.6 5.4,-12 12,-12 h 212 c 6.6,0 12,5.4 12,12 v 35 c 0,6.6 -5.4,12 -12,12 h -212 z"
					class="st5" />
				<path
					style="fill:#61c2ac"
					inkscape:connector-curvature="0"
					id="path3173"
					d="m 377.8,118 h -212 c -4.4,0 -8,3.6 -8,8 v 35 c 0,4.4 3.6,8 8,8 h 212 c 4.4,0 8,-3.6 8,-8 v -35 c 0,-4.5 -3.6,-8 -8,-8 z"
					class="st1" />
				<text
					style="font-size:32px;fill:#ffffff;font-family:Lato;"
					id="text3175"
					class="st6 st8 st3"
					transform="translate(225,153.97)">Elastic</text>
			</g>
		</g>
		<g
			transform="translate(-149.80004,5.3000122)"
			id="Layer_2">
			<path
				style="fill:none;stroke:#fcc34f;stroke-width:1.93990004;stroke-miterlimit:10"
				inkscape:connector-curvature="0"
				id="path3178"
				d="m 407.2,46.7 c -31.1,7.7 -58.2,18.1 -79.5,30.4 -16.3,9.4 -29.2,20 -37.9,31.4 M 395.2,46.7 c 3.9,0 7.3,0.1 11.2,0.1 -3.4,1.9 -6.3,3.6 -9.6,5.6 M 291.6,180.7 c 21.3,25.8 63.9,47.2 118.9,60.3 m -113,-49.7 c -2,-3.5 -3.6,-6.5 -5.3,-10 3.3,2.1 6.1,3.8 9.5,5.7 m 364.7,53.7 c 53.5,-13 95.2,-33.8 116.6,-58.8 m -5.8,10.3 c 2,-3.4 3.7,-6.4 5.5,-10 -3.3,2.1 -6.2,3.8 -9.6,5.6 m 9,-83.7 C 768.3,88.4 746.4,74.3 718.5,62.9 c -15,-6.2 -31.8,-11.6 -50,-16.1 m 12.3,0 c -3.9,0 -7.3,0 -11.3,0.1 3.4,2 6.3,3.6 9.6,5.7 M 536.3,78 v 128 m -3,-116.4 c 1.1,-3.8 2,-7 3,-10.8 1.1,3.8 2,7 3,10.8 M 414.8,145 h 246 m -235.1,3 c -3.6,-1 -6.6,-1.9 -10.2,-3 3.6,-1 6.6,-1.9 10.2,-3 m 224.9,6 c 3.6,-1 6.6,-1.9 10.2,-3 -3.6,-1 -6.6,-1.9 -10.2,-3"
				class="st9" />
		</g>
	</g>
</svg>
