<?xml version="1.0" encoding="UTF-8" standalone="no"?>
<!-- Created with Inkscape (http://www.inkscape.org/) -->

<svg
   xmlns:dc="http://purl.org/dc/elements/1.1/"
   xmlns:cc="http://creativecommons.org/ns#"
   xmlns:rdf="http://www.w3.org/1999/02/22-rdf-syntax-ns#"
   xmlns:svg="http://www.w3.org/2000/svg"
   xmlns="http://www.w3.org/2000/svg"
   xmlns:xlink="http://www.w3.org/1999/xlink"
   xmlns:sodipodi="http://sodipodi.sourceforge.net/DTD/sodipodi-0.dtd"
   xmlns:inkscape="http://www.inkscape.org/namespaces/inkscape"
   width="194.78"
   height="228.065"
   id="svg4349"
   version="1.1"
   inkscape:version="0.48.5 r10040"
   sodipodi:docname="drawing.svg">
  <defs
     id="defs4351">
    <clipPath
       id="SVGID_3_">
      <use
         height="1052.3622"
         width="744.09448"
         y="0"
         x="0"
         style="overflow:visible"
         id="use3597"
         overflow="visible"
         xlink:href="#SVGID_2_" />
    </clipPath>
    <clipPath
       id="SVGID_5_">
      <use
         height="1052.3622"
         width="744.09448"
         y="0"
         x="0"
         style="overflow:visible"
         id="use3704"
         overflow="visible"
         xlink:href="#SVGID_4_" />
    </clipPath>
    <clipPath
       id="SVGID_7_">
      <use
         height="1052.3622"
         width="744.09448"
         y="0"
         x="0"
         style="overflow:visible"
         id="use3730"
         overflow="visible"
         xlink:href="#SVGID_6_" />
    </clipPath>
  </defs>
  <sodipodi:namedview
     id="base"
     pagecolor="#ffffff"
     bordercolor="#666666"
     borderopacity="1.0"
     inkscape:pageopacity="0.0"
     inkscape:pageshadow="2"
     inkscape:zoom="1.4272247"
     inkscape:cx="67.954826"
     inkscape:cy="127.50783"
     inkscape:document-units="px"
     inkscape:current-layer="layer1"
     showgrid="false"
     objecttolerance="10000"
     inkscape:window-width="1600"
     inkscape:window-height="837"
     inkscape:window-x="0"
     inkscape:window-y="27"
     inkscape:window-maximized="1"
     inkscape:snap-page="true"
     fit-margin-top="0"
     fit-margin-left="0"
     fit-margin-right="0"
     fit-margin-bottom="0" />
  <metadata
     id="metadata4354">
    <rdf:RDF>
      <cc:Work
         rdf:about="">
        <dc:format>image/svg+xml</dc:format>
        <dc:type
           rdf:resource="http://purl.org/dc/dcmitype/StillImage" />
        <dc:title></dc:title>
      </cc:Work>
    </rdf:RDF>
  </metadata>
  <g
     inkscape:label="Layer 1"
     inkscape:groupmode="layer"
     id="layer1"
     transform="translate(-219.75286,-192.6154)">
    <g
       transform="translate(61.142856,-7.3846)"
       id="g4111">
      <g
         id="g3580">
        <path
           style="fill:#262626"
           inkscape:connector-curvature="0"
           id="path3582"
           d="m 192.064,248.579 c -3.87,0.108 -5.331,2.24 -5.331,2.24 -1.075,11.716 1.636,19.337 1.636,19.337 1.956,1.639 5.87,0.704 5.87,0.704 l -2.175,-22.281 z" />
        <path
           style="fill:#262626"
           inkscape:connector-curvature="0"
           id="path3584"
           d="m 312.674,240.21 c 3.848,-0.429 5.59,1.48 5.59,1.48 2.687,11.454 1.056,19.378 1.056,19.378 -1.71,1.894 -5.716,1.51 -5.716,1.51 l -0.93,-22.368 z" />
      </g>
      <g
         id="g3586">
        <g
           id="g3588">
          <path
             style="fill:#353535"
             inkscape:connector-curvature="0"
             d="m 267.161,292.259 -11.365,-0.947 -11.365,0.947 c 0,0 0.412,3.979 -1.354,7.904 h 25.438 c -1.811,-3.926 -1.354,-7.904 -1.354,-7.904 z"
             id="SVGID_1_" />
        </g>
        <g
           id="g3591">
          <defs
             id="defs3593">
            <path
               inkscape:connector-curvature="0"
               d="m 267.161,292.259 -11.365,-0.947 -11.365,0.947 c 0,0 0.412,3.979 -1.354,7.904 h 25.438 c -1.811,-3.926 -1.354,-7.904 -1.354,-7.904 z"
               id="SVGID_2_" />
          </defs>
          <clipPath
             id="clipPath4253">
            <use
               height="1052.3622"
               width="744.09448"
               y="0"
               x="0"
               style="overflow:visible"
               id="use4255"
               overflow="visible"
               xlink:href="#SVGID_2_" />
          </clipPath>
          <path
             inkscape:connector-curvature="0"
             style="fill:none;stroke:#262626;stroke-width:30;stroke-miterlimit:10;stroke-dasharray:2, 1"
             clip-path="url(#SVGID_3_)"
             d="m 255.774,289.58401 0,13.667"
             id="line3599" />
        </g>
      </g>
      <path
         inkscape:connector-curvature="0"
         style="opacity:0.3;fill:#ffffff"
         d="m 353.39,414.293 c 0,7.60607 -43.60299,13.772 -97.39,13.772 -53.78701,0 -97.39,-6.16593 -97.39,-13.772 0,-7.60607 43.60299,-13.772 97.39,-13.772 53.78701,0 97.39,6.16593 97.39,13.772 z"
         id="ellipse3601" />
      <g
         id="g3603">
        <path
           style="fill:#f4f4f4"
           inkscape:connector-curvature="0"
           id="path3605"
           d="m 201.004,373.515 c 0,0 -15.632,1.705 -23.305,-8.242 -17.053,15.916 -1.137,25.011 -1.137,25.011 12.505,5.4 15.063,-5.684 15.063,-5.684 -0.853,8.526 5.684,7.105 5.684,7.105 6.495,-1.412 3.791,-18.177 3.756,-18.392 -0.019,0.067 -0.043,0.135 -0.061,0.202 z" />
      </g>
      <path
         style="opacity:0.1;fill:#262626"
         inkscape:connector-curvature="0"
         id="path3607"
         d="m 181.856,388.637 c 0,0 -13.457,-7.707 -2.318,-21.339 -0.649,-0.617 -1.268,-1.285 -1.839,-2.025 -17.053,15.916 -1.137,25.011 -1.137,25.011 5.578,2.409 9.173,1.535 11.448,-0.169 -1.721,-0.016 -3.752,-0.441 -6.154,-1.478 z"
         enable-background="new    " />
      <path
         style="fill:#262626"
         inkscape:connector-curvature="0"
         id="path3609"
         d="m 299.815,370.131 c -13.128,-48.852 -31.322,-69.968 -31.322,-69.968 h -12.697 -12.697 c 0,0 -18.238,21.116 -31.366,69.968 0,0 -8.684,36.648 1,43.965 15.71,3.439 31.42,0 31.42,0 0,0 2.582,-1.864 2.582,-23.901 0,0 5.595,0.937 9.039,0.937 3.602,0 9.039,-0.937 9.039,-0.937 0,21.691 2.582,23.901 2.582,23.901 15.71,3.439 31.42,0 31.42,0 9.684,-7.317 1,-43.965 1,-43.965 z" />
      <path
         inkscape:connector-curvature="0"
         style="fill:#262626"
         d="m 252.681,213.632 -3.706,0.212 -6.953,-12.925 4.003,-0.229 4.608,8.449 3.508,-8.912 3.977,-0.227 z"
         id="polygon3611" />
      <g
         id="g3613">
        <path
           style="fill:#f4f4f4"
           inkscape:connector-curvature="0"
           id="path3615"
           d="m 309.735,222.23 c 0,0 -1.01,-3.089 -3.912,-3.997 0,0 -19.753,-7.706 -55.063,-5.689 -35.31,2.015 -54.058,11.919 -54.058,11.919 -2.78,1.232 -3.432,4.416 -3.432,4.416 -5.451,27.328 3.452,62.111 3.452,62.111 0.716,2.763 4.092,3.576 4.092,3.576 12.081,2.885 54.685,0.615 54.685,0.615 0,0 42.586,-2.593 54.26,-6.835 0,0 3.262,-1.192 3.659,-4.019 0,10e-4 4.843,-35.567 -3.683,-62.097 z" />
        <g
           id="g3617">
          <path
             style="fill:#ffffff"
             inkscape:connector-curvature="0"
             id="path3619"
             d="m 196.918,236.209 c 0,0 0.007,0.203 0.02,0.583 0.006,0.379 0.05,0.94 0.035,1.644 -0.004,0.706 -0.008,1.563 -0.014,2.546 -0.024,0.987 0.057,2.085 0.044,3.275 0.005,0.594 0.01,1.213 0.016,1.854 -0.001,0.639 -0.02,1.297 0.014,1.981 0.041,1.364 0.083,2.799 0.085,4.28 0.055,1.482 0.168,3.009 0.18,4.562 0.098,1.549 0.198,3.122 0.298,4.695 0.135,1.569 0.205,3.146 0.389,4.686 0.189,1.538 0.268,3.069 0.486,4.531 0.179,1.469 0.357,2.888 0.547,4.235 0.204,1.346 0.396,2.619 0.574,3.794 0.198,1.177 0.379,2.256 0.54,3.213 0.156,0.963 0.341,1.789 0.477,2.478 0.169,0.676 0.243,1.233 0.335,1.597 0.083,0.368 0.128,0.565 0.128,0.565 l -0.183,0.08 c 0,0 -0.316,-0.742 -0.787,-2.065 -0.457,-1.328 -1.069,-3.239 -1.675,-5.569 -0.288,-1.168 -0.61,-2.432 -0.887,-3.783 -0.281,-1.35 -0.572,-2.775 -0.801,-4.262 -0.272,-1.48 -0.455,-3.024 -0.661,-4.59 -0.213,-1.566 -0.312,-3.169 -0.474,-4.765 -0.076,-1.603 -0.152,-3.206 -0.227,-4.783 -0.006,-1.579 -0.012,-3.133 -0.018,-4.638 0.056,-1.503 0.11,-2.955 0.162,-4.333 0.036,-1.378 0.2,-2.675 0.283,-3.875 0.108,-1.198 0.166,-2.302 0.313,-3.267 0.125,-0.968 0.234,-1.812 0.323,-2.507 0.179,-1.39 0.282,-2.185 0.282,-2.185 l 0.196,0.023 z" />
        </g>
        <path
           style="opacity:0.07999998;fill:#262626"
           inkscape:connector-curvature="0"
           id="path3621"
           d="m 253.548,295.277 c 1.247,-0.059 1.952,-0.096 1.952,-0.096 35.839,-3.318 37.121,-2.682 54.26,-6.835 0,0 3.262,-1.192 3.659,-4.019 0,0 4.843,-35.568 -3.683,-62.098 0,0 -1.01,-3.089 -3.912,-3.997 0,0 -16.437,-6.406 -46.115,-6.004 6.576,0.761 37.112,5.726 42.358,11.309 5.126,5.456 5.33,13.96 6.141,21.019 1.09,9.49 0.714,25.5 -0.836,34.936 -1.432,8.715 -22.672,10.123 -33.904,12.36 -6.603,1.316 -13.268,2.394 -19.92,3.425 z"
           enable-background="new    " />
      </g>
      <g
         id="g3623">
        <g
           id="g3625">
          <g
             id="g3627">
            <path
               inkscape:connector-curvature="0"
               style="fill:#d9dadb"
               d="m 241.02701,251.92101 c 0,9.60202 -7.78398,17.38599 -17.386,17.38599 -9.60203,0 -17.386,-7.78397 -17.386,-17.38599 0,-9.60203 7.78397,-17.386 17.386,-17.386 9.60202,0 17.386,7.78397 17.386,17.386 z"
               id="circle3629" />
            <g
               id="g3631">
              <path
                 style="fill:#d9dadb"
                 inkscape:connector-curvature="0"
                 id="path3633"
                 d="m 241.099,250.929 c 0,0 0.007,0.427 0.019,1.226 0.025,0.399 -0.013,0.894 -0.071,1.479 -0.032,0.291 -0.038,0.608 -0.08,0.941 -0.055,0.331 -0.113,0.683 -0.175,1.054 -0.302,1.467 -0.713,3.293 -1.719,5.185 -0.978,1.886 -2.404,3.923 -4.487,5.62 -2.074,1.691 -4.805,2.975 -7.848,3.477 -0.776,0.096 -1.512,0.171 -2.357,0.195 -0.758,-0.03 -1.494,-0.014 -2.329,-0.154 -1.641,-0.168 -3.192,-0.647 -4.726,-1.265 -1.531,-0.63 -2.94,-1.547 -4.286,-2.545 -1.316,-1.049 -2.506,-2.265 -3.554,-3.616 -1.025,-1.37 -1.859,-2.89 -2.519,-4.497 -0.646,-1.616 -1.032,-3.336 -1.231,-5.087 -0.128,-1.713 -0.07,-3.543 0.278,-5.282 0.401,-1.727 1.008,-3.407 1.859,-4.957 0.88,-1.529 1.958,-2.932 3.201,-4.147 1.27,-1.181 2.649,-2.234 4.156,-3.018 1.503,-0.775 3.082,-1.382 4.692,-1.674 0.794,-0.203 1.604,-0.251 2.396,-0.342 0.123,-0.009 0.146,-0.02 0.35,-0.027 l 0.281,0.002 0.559,0.003 c 0.379,0.011 0.724,-0.015 1.124,0.026 3.197,0.224 5.984,1.22 8.255,2.686 2.259,1.469 3.905,3.336 5.088,5.104 1.214,1.768 1.83,3.537 2.295,4.963 0.103,0.363 0.201,0.706 0.293,1.029 0.079,0.326 0.12,0.639 0.184,0.924 0.121,0.572 0.214,1.06 0.234,1.463 l 0.117,1.229 10e-4,0.005 z m -0.2,0.005 c 0,-0.001 -0.051,-0.421 -0.146,-1.209 -0.029,-0.397 -0.133,-0.876 -0.266,-1.437 -0.099,-0.569 -0.318,-1.194 -0.574,-1.887 -0.51,-1.381 -1.356,-2.991 -2.664,-4.546 -1.295,-1.56 -3.06,-3.052 -5.218,-4.191 -2.144,-1.114 -4.755,-1.914 -7.42,-2.053 -2.847,-0.104 -5.714,0.436 -8.433,1.77 -1.358,0.654 -2.611,1.557 -3.782,2.578 -1.151,1.052 -2.137,2.295 -3.002,3.635 -0.84,1.359 -1.471,2.856 -1.923,4.418 -0.439,1.575 -0.627,3.17 -0.641,4.868 0.076,1.651 0.324,3.306 0.838,4.893 0.562,1.564 1.32,3.06 2.306,4.387 1.012,1.301 2.173,2.479 3.494,3.409 1.331,0.911 2.758,1.639 4.238,2.111 1.471,0.452 2.995,0.78 4.433,0.805 0.695,0.074 1.485,-0.009 2.232,-0.031 0.654,-0.052 1.401,-0.155 2.072,-0.27 2.74,-0.525 5.168,-1.64 7.186,-3.015 2.008,-1.397 3.588,-3.084 4.694,-4.787 1.122,-1.697 1.78,-3.394 2.126,-4.826 0.175,-0.719 0.321,-1.365 0.352,-1.939 0.066,-0.57 0.113,-1.057 0.096,-1.459 0.001,-0.798 0.002,-1.221 0.002,-1.224 z" />
            </g>
          </g>
          <g
             id="g3635">
            <path
               inkscape:connector-curvature="0"
               style="fill:#262626"
               d="m 238.54301,251.92101 c 0,8.23014 -6.67186,14.902 -14.902,14.902 -8.23015,0 -14.902,-6.67186 -14.902,-14.902 0,-8.23015 6.67185,-14.90201 14.902,-14.90201 8.23014,0 14.902,6.67186 14.902,14.90201 z"
               id="circle3637" />
            <g
               id="g3639">
              <path
                 style="fill:#262626"
                 inkscape:connector-curvature="0"
                 id="path3641"
                 d="m 238.619,251.071 c 0,0 0.008,0.366 0.022,1.051 0.023,0.342 -0.007,0.767 -0.053,1.27 -0.026,0.25 -0.03,0.523 -0.064,0.809 -0.045,0.285 -0.093,0.587 -0.144,0.907 -0.244,1.267 -0.614,2.827 -1.445,4.474 -0.818,1.639 -2.032,3.411 -3.815,4.908 -1.776,1.493 -4.13,2.638 -6.775,3.138 -0.679,0.107 -1.302,0.196 -2.067,0.241 -0.653,-0.002 -1.267,0.039 -2.025,-0.057 -1.473,-0.098 -2.847,-0.46 -4.228,-0.984 -1.372,-0.528 -2.658,-1.3 -3.863,-2.192 -1.185,-0.925 -2.248,-2.024 -3.149,-3.254 -0.878,-1.25 -1.559,-2.635 -2.066,-4.079 -0.461,-1.477 -0.675,-2.961 -0.731,-4.531 0.007,-1.429 0.177,-3.017 0.579,-4.441 0.412,-1.436 0.979,-2.815 1.72,-4.085 0.763,-1.257 1.66,-2.411 2.676,-3.441 1.049,-0.988 2.157,-1.919 3.401,-2.617 1.24,-0.686 2.545,-1.262 3.898,-1.569 0.667,-0.202 1.351,-0.274 2.024,-0.379 0.756,-0.062 1.297,-0.072 1.976,-0.07 2.74,0.129 5.157,0.963 7.112,2.224 1.946,1.264 3.356,2.882 4.358,4.412 1.014,1.539 1.558,3.045 1.947,4.274 0.087,0.311 0.17,0.606 0.248,0.883 0.067,0.28 0.101,0.548 0.157,0.793 0.105,0.49 0.185,0.909 0.203,1.255 l 0.103,1.054 0.001,0.006 z m -0.2,0.005 c 0,-0.001 -0.043,-0.36 -0.123,-1.035 -0.024,-0.34 -0.112,-0.751 -0.225,-1.231 -0.083,-0.488 -0.275,-1.022 -0.496,-1.615 -0.446,-1.177 -1.156,-2.566 -2.303,-3.876 -1.123,-1.323 -2.635,-2.583 -4.476,-3.555 -1.829,-0.951 -4.039,-1.656 -6.323,-1.838 -2.43,-0.169 -4.953,0.125 -7.388,1.223 -1.212,0.534 -2.359,1.28 -3.403,2.18 -1.036,0.913 -1.907,2.026 -2.641,3.229 -0.708,1.223 -1.202,2.568 -1.521,3.951 -0.273,1.416 -0.314,2.765 -0.209,4.259 0.18,1.346 0.51,2.755 1.042,4.023 0.54,1.274 1.223,2.474 2.069,3.536 0.865,1.043 1.818,1.995 2.892,2.768 1.089,0.744 2.234,1.382 3.442,1.798 1.196,0.393 2.458,0.723 3.623,0.79 0.553,0.088 1.248,0.043 1.884,0.049 0.52,-0.019 1.168,-0.083 1.729,-0.157 2.311,-0.382 4.379,-1.292 6.111,-2.427 1.724,-1.155 3.087,-2.575 4.055,-4.012 0.993,-1.428 1.538,-2.888 1.851,-4.106 0.153,-0.614 0.283,-1.166 0.312,-1.656 0.059,-0.487 0.102,-0.903 0.089,-1.249 0.006,-0.685 0.009,-1.047 0.009,-1.049 z" />
            </g>
          </g>
          <path
             inkscape:connector-curvature="0"
             style="fill:#ffffff"
             d="m 230.008,246.88699 c 0,1.59942 -1.29658,2.896 -2.896,2.896 -1.59942,0 -2.896,-1.29658 -2.896,-2.896 0,-1.59941 1.29658,-2.896 2.896,-2.896 1.59942,0 2.896,1.29659 2.896,2.896 z"
             id="circle3643" />
          <path
             inkscape:connector-curvature="0"
             style="fill:#ffffff"
             d="m 224.813,253.814 c 0,0.94772 -0.76828,1.716 -1.716,1.716 -0.94772,0 -1.716,-0.76828 -1.716,-1.716 0,-0.94773 0.76828,-1.716 1.716,-1.716 0.94772,0 1.716,0.76827 1.716,1.716 z"
             id="circle3645" />
          <g
             style="opacity:0.5"
             id="g3647">
            <path
               style="fill:#ffffff"
               inkscape:connector-curvature="0"
               id="path3649"
               d="m 221.353,241.276 c 0,0 -0.168,0.101 -0.466,0.247 -0.149,0.069 -0.329,0.16 -0.539,0.24 -0.217,0.076 -0.411,0.224 -0.642,0.323 -0.225,0.116 -0.46,0.22 -0.709,0.375 -0.244,0.153 -0.518,0.257 -0.767,0.435 -0.249,0.175 -0.529,0.302 -0.776,0.498 -0.253,0.184 -0.523,0.346 -0.762,0.556 -1.011,0.758 -1.925,1.682 -2.654,2.43 -0.747,0.794 -1.245,1.323 -1.245,1.323 0,0 -0.114,-0.799 0.249,-1.896 0.315,-1.105 1.159,-2.483 2.43,-3.441 0.306,-0.249 0.648,-0.451 0.99,-0.636 0.329,-0.206 0.704,-0.315 1.045,-0.449 0.339,-0.141 0.703,-0.177 1.027,-0.248 0.32,-0.074 0.657,-0.067 0.951,-0.071 0.292,-10e-4 0.567,-0.011 0.784,0.042 0.221,0.035 0.417,0.087 0.577,0.124 0.321,0.083 0.507,0.148 0.507,0.148 z" />
          </g>
          <g
             style="opacity:0.5"
             id="g3651">
            <path
               inkscape:connector-curvature="0"
               id="path3653"
               d="m 235.43,242.811 c 0.604,1.483 0.991,3.081 1.087,4.769 0.469,8.217 -5.812,15.258 -14.028,15.727 -5.095,0.291 -9.734,-2.016 -12.638,-5.768 2.337,5.736 8.111,9.632 14.64,9.259 8.217,-0.469 14.498,-7.511 14.028,-15.727 -0.178,-3.122 -1.309,-5.961 -3.089,-8.26 z" />
            <g
               id="g3655">
              <path
                 inkscape:connector-curvature="0"
                 id="path3657"
                 d="m 235.524,242.777 c 0.183,0.409 0.386,0.805 0.552,1.223 0.141,0.429 0.322,0.858 0.432,1.299 0.238,0.882 0.44,1.77 0.492,2.71 0.015,0.451 0.076,0.878 0.052,1.348 -0.023,0.467 -0.034,0.943 -0.073,1.411 l -0.203,1.382 -0.335,1.361 c -0.288,0.89 -0.627,1.769 -1.066,2.603 -0.432,0.835 -0.937,1.64 -1.532,2.375 -0.277,0.386 -0.596,0.734 -0.925,1.077 l -0.487,0.52 -0.533,0.473 c -0.356,0.315 -0.717,0.625 -1.116,0.887 -0.39,0.273 -0.769,0.564 -1.192,0.785 -0.815,0.495 -1.684,0.898 -2.578,1.234 -0.456,0.141 -0.908,0.298 -1.369,0.422 l -1.402,0.294 c -0.472,0.065 -0.948,0.106 -1.421,0.158 l -0.178,0.016 -0.089,0.008 h -0.15 l -0.334,-0.008 -0.668,-0.015 c -0.851,0.031 -1.894,-0.183 -2.842,-0.316 -0.914,-0.264 -1.848,-0.46 -2.708,-0.869 -0.896,-0.32 -1.698,-0.833 -2.523,-1.29 -0.753,-0.571 -1.541,-1.094 -2.192,-1.779 -0.711,-0.618 -1.273,-1.378 -1.865,-2.098 l 1.26,-0.726 c 0.36,0.939 0.766,1.874 1.315,2.733 0.539,0.862 1.162,1.684 1.888,2.411 0.709,0.744 1.509,1.409 2.386,1.957 0.858,0.583 1.818,0.996 2.786,1.361 0.979,0.344 2.002,0.551 3.03,0.668 1.029,0.072 2.078,0.096 3.085,-0.085 0.526,-0.079 1.055,-0.158 1.528,-0.309 l 0.727,-0.194 c 0.24,-0.078 0.478,-0.178 0.717,-0.265 l 0.711,-0.272 0.682,-0.337 c 0.463,-0.204 0.887,-0.483 1.314,-0.75 0.849,-0.541 1.621,-1.186 2.358,-1.856 0.358,-0.347 0.683,-0.727 1.039,-1.075 0.305,-0.394 0.633,-0.77 0.922,-1.175 0.565,-0.818 1.098,-1.665 1.493,-2.582 0.197,-0.458 0.405,-0.913 0.539,-1.395 l 0.238,-0.711 c 0.066,-0.241 0.112,-0.487 0.17,-0.731 0.053,-0.245 0.117,-0.488 0.162,-0.735 l 0.091,-0.747 c 0.079,-0.498 0.098,-1.001 0.11,-1.506 l 0.014,-0.379 c 0.004,-0.04 10e-4,-0.178 0.011,-0.138 l -0.019,-0.198 -0.074,-0.791 c -0.071,-0.516 -0.05,-1.082 -0.175,-1.559 -0.237,-0.963 -0.416,-1.964 -0.843,-2.918 -0.307,-1.004 -0.915,-1.855 -1.385,-2.812 l 0.173,-0.095 z m -0.015,-0.027 c 0.655,0.834 1.407,1.642 1.873,2.626 0.242,0.486 0.581,0.928 0.747,1.461 l 0.553,1.584 c 0.188,0.535 0.227,1.045 0.335,1.571 l 0.138,0.783 0.034,0.196 0.016,0.259 0.019,0.415 c 0.028,0.554 0.063,1.111 0,1.665 l -0.059,0.834 c -0.035,0.276 -0.09,0.55 -0.135,0.825 -0.05,0.275 -0.089,0.552 -0.148,0.825 l -0.222,0.809 c -0.133,0.546 -0.354,1.061 -0.563,1.581 -0.425,1.037 -0.982,2.017 -1.621,2.94 -0.33,0.453 -0.702,0.875 -1.054,1.312 -0.396,0.397 -0.782,0.806 -1.208,1.169 -0.855,0.724 -1.776,1.37 -2.775,1.865 -0.498,0.249 -0.99,0.505 -1.518,0.682 l -0.776,0.293 c -0.263,0.083 -0.533,0.147 -0.799,0.22 -0.267,0.069 -0.529,0.147 -0.8,0.206 l -0.827,0.135 c -0.556,0.11 -1.082,0.134 -1.61,0.16 -1.097,0.078 -2.179,0.014 -3.253,-0.125 -1.076,-0.134 -2.125,-0.407 -3.153,-0.738 -1.015,-0.365 -2.017,-0.787 -2.948,-1.344 -0.935,-0.546 -1.837,-1.163 -2.651,-1.891 -0.835,-0.707 -1.561,-1.536 -2.232,-2.407 -0.676,-0.873 -1.215,-1.844 -1.705,-2.843 -0.176,-0.358 -0.028,-0.791 0.33,-0.966 0.286,-0.14 0.62,-0.074 0.832,0.141 l 0.097,0.099 c 0.596,0.606 1.125,1.268 1.803,1.779 0.614,0.58 1.354,0.996 2.044,1.466 0.749,0.375 1.467,0.809 2.268,1.059 0.766,0.339 1.596,0.471 2.398,0.682 0.819,0.066 1.532,0.245 2.47,0.186 l 0.668,-0.008 0.334,-0.004 h 0.042 0.021 0.01 c 0.063,-0.002 -0.074,0.002 -0.056,10e-4 l 0.077,-0.01 0.154,-0.02 1.233,-0.141 1.213,-0.26 c 0.398,-0.11 0.788,-0.25 1.182,-0.371 0.773,-0.287 1.542,-0.6 2.26,-1.015 0.376,-0.179 0.71,-0.426 1.057,-0.654 0.356,-0.217 0.677,-0.479 0.996,-0.746 l 0.49,-0.388 0.449,-0.434 c 0.305,-0.285 0.605,-0.576 0.864,-0.904 0.56,-0.621 1.042,-1.311 1.486,-2.022 0.446,-0.714 0.806,-1.478 1.126,-2.262 l 0.428,-1.199 0.313,-1.24 c 0.077,-0.414 0.127,-0.828 0.195,-1.247 0.068,-0.417 0.053,-0.883 0.083,-1.322 0.033,-0.842 -0.01,-1.726 -0.128,-2.589 -0.118,-0.857 -0.33,-1.716 -0.575,-2.582 l -0.002,-0.006 c -0.015,-0.053 0.016,-0.108 0.069,-0.124 0.045,-0.013 0.087,0.002 0.111,0.033 z" />
            </g>
          </g>
        </g>
        <g
           id="g3659">
          <g
             id="g3661">
            <path
               inkscape:connector-curvature="0"
               style="fill:#d9dadb"
               d="m 299.58101,248.578 c 0,9.60203 -7.78398,17.386 -17.386,17.386 -9.60203,0 -17.386,-7.78397 -17.386,-17.386 0,-9.60202 7.78397,-17.386 17.386,-17.386 9.60202,0 17.386,7.78398 17.386,17.386 z"
               id="circle3663" />
            <g
               id="g3665">
              <path
                 style="fill:#d9dadb"
                 inkscape:connector-curvature="0"
                 id="path3667"
                 d="m 299.653,247.586 c 0,0 0.008,0.427 0.023,1.226 0.026,0.399 -0.01,0.894 -0.065,1.48 -0.031,0.291 -0.036,0.609 -0.078,0.942 -0.054,0.331 -0.112,0.683 -0.174,1.056 -0.299,1.469 -0.71,3.297 -1.715,5.192 -0.975,1.891 -2.397,3.933 -4.475,5.65 -2.068,1.712 -4.791,3.029 -7.849,3.602 -0.379,0.086 -0.772,0.105 -1.161,0.16 -0.409,0.036 -0.745,0.118 -1.222,0.114 -0.761,-0.002 -1.483,0.046 -2.351,-0.065 -1.693,-0.112 -3.287,-0.531 -4.882,-1.132 -1.587,-0.607 -3.076,-1.496 -4.472,-2.525 -1.374,-1.066 -2.604,-2.337 -3.653,-3.756 -1.022,-1.443 -1.816,-3.044 -2.411,-4.713 -0.544,-1.706 -0.804,-3.431 -0.879,-5.243 -10e-4,-1.673 0.186,-3.505 0.645,-5.166 0.473,-1.671 1.128,-3.277 1.991,-4.754 0.888,-1.462 1.932,-2.805 3.119,-3.997 1.224,-1.145 2.519,-2.216 3.968,-3.016 1.445,-0.787 2.962,-1.445 4.531,-1.791 0.774,-0.23 1.567,-0.307 2.347,-0.425 0.481,-0.067 0.779,-0.037 1.174,-0.06 0.378,-0.002 0.727,-0.041 1.121,-0.013 3.159,0.155 5.961,1.118 8.232,2.562 2.263,1.45 3.911,3.311 5.098,5.073 1.215,1.765 1.83,3.532 2.298,4.956 0.104,0.362 0.202,0.705 0.294,1.028 0.08,0.325 0.121,0.638 0.186,0.923 0.123,0.571 0.217,1.058 0.239,1.462 0.079,0.801 0.122,1.228 0.122,1.228 l -10e-4,0.002 z m -0.199,0.007 c 0,0 -0.049,-0.421 -0.142,-1.211 -0.028,-0.398 -0.13,-0.877 -0.261,-1.438 -0.097,-0.57 -0.316,-1.196 -0.571,-1.89 -0.507,-1.383 -1.354,-2.995 -2.661,-4.553 -1.293,-1.566 -3.054,-3.062 -5.208,-4.221 -2.144,-1.136 -4.74,-1.969 -7.443,-2.177 -2.847,-0.191 -5.82,0.187 -8.662,1.493 -1.417,0.637 -2.752,1.523 -3.97,2.579 -1.207,1.075 -2.226,2.377 -3.084,3.785 -0.828,1.431 -1.411,3.003 -1.792,4.621 -0.329,1.653 -0.388,3.246 -0.275,4.984 0.2,1.589 0.575,3.239 1.19,4.736 0.627,1.501 1.424,2.916 2.414,4.171 1.012,1.232 2.133,2.356 3.396,3.269 1.28,0.881 2.628,1.636 4.051,2.131 1.41,0.469 2.892,0.857 4.278,0.938 0.662,0.103 1.467,0.051 2.21,0.058 0.627,-0.025 1.381,-0.101 2.046,-0.191 2.725,-0.455 5.16,-1.536 7.185,-2.891 2.014,-1.377 3.598,-3.06 4.707,-4.758 1.123,-1.694 1.78,-3.389 2.129,-4.819 0.176,-0.718 0.322,-1.364 0.356,-1.937 0.068,-0.569 0.117,-1.056 0.101,-1.459 0.005,-0.8 0.007,-1.227 0.007,-1.227 l -10e-4,0.007 z" />
            </g>
          </g>
          <g
             id="g3669">
            <path
               inkscape:connector-curvature="0"
               style="fill:#262626"
               d="m 297.09701,248.578 c 0,8.23015 -6.67186,14.902 -14.902,14.902 -8.23015,0 -14.902,-6.67185 -14.902,-14.902 0,-8.23014 6.67185,-14.902 14.902,-14.902 8.23014,0 14.902,6.67186 14.902,14.902 z"
               id="circle3671" />
            <g
               id="g3673">
              <path
                 style="fill:#262626"
                 inkscape:connector-curvature="0"
                 id="path3675"
                 d="m 267.417,249.417 c 0,0 0.044,0.363 0.128,1.044 0.026,0.345 0.116,0.754 0.23,1.23 0.085,0.484 0.276,1.017 0.499,1.61 0.449,1.175 1.157,2.563 2.306,3.869 1.125,1.317 2.641,2.573 4.485,3.524 1.85,0.931 4.007,1.6 6.347,1.716 0.566,0.01 1.217,-0.001 1.736,-0.041 0.631,-0.078 1.327,-0.113 1.867,-0.263 1.15,-0.2 2.367,-0.671 3.51,-1.198 1.154,-0.551 2.218,-1.315 3.215,-2.178 0.98,-0.89 1.818,-1.944 2.559,-3.079 1.433,-2.305 2.222,-5.063 2.229,-7.891 -0.061,-1.441 -0.259,-2.816 -0.69,-4.18 -0.475,-1.338 -1.119,-2.618 -1.961,-3.752 -0.865,-1.111 -1.858,-2.118 -2.991,-2.907 -1.14,-0.775 -2.364,-1.385 -3.629,-1.778 -2.544,-0.813 -5.085,-0.818 -7.479,-0.374 -2.249,0.44 -4.364,1.392 -6.073,2.546 -1.718,1.175 -3.077,2.599 -4.042,4.041 -0.991,1.432 -1.538,2.893 -1.847,4.113 -0.152,0.614 -0.282,1.167 -0.309,1.661 -0.058,0.49 -0.098,0.908 -0.083,1.249 -0.003,0.681 -0.004,1.044 -0.004,1.044 l -0.003,-0.006 z m -0.2,0.016 c 0,0 -0.006,-0.368 -0.018,-1.058 -0.022,-0.346 0.011,-0.771 0.059,-1.27 0.028,-0.249 0.031,-0.52 0.066,-0.805 0.046,-0.284 0.094,-0.587 0.146,-0.906 0.247,-1.265 0.616,-2.823 1.448,-4.468 0.821,-1.634 2.038,-3.402 3.827,-4.879 1.799,-1.475 4.105,-2.579 6.813,-3.019 0.675,-0.079 1.214,-0.131 1.972,-0.155 0.681,0.027 1.369,0.021 2.054,0.146 1.379,0.152 2.741,0.575 4.051,1.116 1.315,0.551 2.522,1.351 3.677,2.213 1.127,0.908 2.15,1.953 3.051,3.115 0.881,1.177 1.602,2.482 2.174,3.862 0.563,1.381 0.909,2.899 1.083,4.374 0.119,1.511 0.078,3.049 -0.213,4.557 -0.34,1.492 -0.859,2.945 -1.589,4.287 -0.756,1.324 -1.686,2.538 -2.758,3.591 -1.096,1.024 -2.286,1.937 -3.589,2.618 -1.312,0.678 -2.636,1.193 -4.088,1.458 -0.743,0.181 -1.357,0.211 -2.005,0.287 -0.765,0.042 -1.394,0.025 -2.081,-0.005 -2.685,-0.195 -5.154,-1.065 -7.088,-2.346 -1.942,-1.284 -3.349,-2.907 -4.349,-4.442 -1.013,-1.542 -1.558,-3.05 -1.945,-4.281 -0.087,-0.312 -0.169,-0.607 -0.247,-0.885 -0.067,-0.281 -0.101,-0.551 -0.156,-0.797 -0.103,-0.494 -0.182,-0.913 -0.198,-1.255 -0.064,-0.683 -0.098,-1.047 -0.098,-1.047 l 10e-4,-0.006 z" />
            </g>
          </g>
          <path
             inkscape:connector-curvature="0"
             style="fill:#ffffff"
             d="m 280.112,244.026 c 0,1.59942 -1.29658,2.896 -2.896,2.896 -1.59941,0 -2.896,-1.29658 -2.896,-2.896 0,-1.59942 1.29659,-2.896 2.896,-2.896 1.59942,0 2.896,1.29658 2.896,2.896 z"
             id="circle3677" />
          <path
             inkscape:connector-curvature="0"
             style="fill:#ffffff"
             d="m 284.626,249.66299 c 0,0.94772 -0.76828,1.716 -1.716,1.716 -0.94772,0 -1.716,-0.76828 -1.716,-1.716 0,-0.94772 0.76828,-1.716 1.716,-1.716 0.94772,0 1.716,0.76828 1.716,1.716 z"
             id="circle3679" />
          <g
             style="opacity:0.5"
             id="g3681">
            <path
               style="fill:#ffffff"
               inkscape:connector-curvature="0"
               id="path3683"
               d="m 283.257,237.742 c 0,0 0.177,-0.086 0.487,-0.203 0.155,-0.055 0.343,-0.129 0.559,-0.189 0.209,-0.077 0.484,-0.098 0.774,-0.13 0.293,-0.03 0.626,-0.076 0.953,-0.038 0.33,0.034 0.695,0.028 1.048,0.129 0.354,0.094 0.739,0.159 1.089,0.327 0.361,0.145 0.723,0.307 1.056,0.519 1.371,0.808 2.366,2.08 2.805,3.142 0.485,1.048 0.463,1.855 0.463,1.855 0,0 -0.555,-0.469 -1.387,-1.173 -0.81,-0.66 -1.823,-1.474 -2.914,-2.112 -0.261,-0.182 -0.548,-0.312 -0.82,-0.466 -0.267,-0.167 -0.56,-0.262 -0.828,-0.407 -0.267,-0.149 -0.552,-0.221 -0.811,-0.345 -0.264,-0.126 -0.51,-0.203 -0.747,-0.292 -0.241,-0.072 -0.45,-0.196 -0.675,-0.248 -0.217,-0.055 -0.407,-0.125 -0.563,-0.177 -0.31,-0.111 -0.489,-0.192 -0.489,-0.192 z" />
          </g>
          <g
             style="opacity:0.5"
             id="g3685">
            <path
               inkscape:connector-curvature="0"
               id="path3687"
               d="m 290.727,236.374 c 2.142,2.419 3.526,5.54 3.724,9.016 0.469,8.217 -5.812,15.258 -14.029,15.727 -3.476,0.198 -6.735,-0.821 -9.381,-2.674 2.922,3.299 7.262,5.283 12.003,5.013 8.217,-0.469 14.498,-7.511 14.029,-15.727 -0.27,-4.741 -2.736,-8.828 -6.346,-11.355 z" />
            <g
               id="g3689">
              <path
                 inkscape:connector-curvature="0"
                 id="path3691"
                 d="m 290.805,236.311 c 0.311,0.329 0.639,0.639 0.936,0.985 0.277,0.363 0.596,0.712 0.845,1.099 0.519,0.759 1.015,1.554 1.37,2.416 0.194,0.425 0.365,0.859 0.5,1.308 0.161,0.441 0.278,0.895 0.38,1.354 0.125,0.455 0.188,0.921 0.256,1.389 l 0.052,0.351 c 0.008,0.074 0.02,0.083 0.024,0.21 l 0.01,0.169 0.036,0.676 0.026,0.678 -0.041,0.728 c -0.023,0.489 -0.054,0.978 -0.147,1.441 -0.123,0.947 -0.383,1.874 -0.694,2.778 -0.318,0.906 -0.729,1.776 -1.202,2.614 -0.262,0.403 -0.514,0.814 -0.788,1.21 l -0.895,1.135 -1,1.046 c -0.353,0.328 -0.727,0.636 -1.097,0.946 -0.772,0.581 -1.58,1.113 -2.441,1.554 -0.858,0.442 -1.758,0.809 -2.689,1.062 -0.457,0.156 -0.931,0.248 -1.405,0.335 -0.471,0.104 -0.945,0.179 -1.426,0.207 l -0.717,0.065 -0.179,0.016 c -0.144,0.01 -0.137,0.002 -0.213,0.004 l -0.338,-10e-4 c -0.449,0 -0.892,0.007 -1.402,-0.051 -0.496,-0.034 -0.983,-0.087 -1.448,-0.183 -0.474,-0.071 -0.941,-0.176 -1.399,-0.316 -0.923,-0.248 -1.811,-0.61 -2.665,-1.025 -0.853,-0.419 -1.661,-0.921 -2.418,-1.487 l 0.938,-1.052 1.004,1.119 c 0.363,0.346 0.747,0.672 1.121,1.013 0.39,0.32 0.82,0.588 1.23,0.888 0.418,0.288 0.882,0.499 1.323,0.754 0.91,0.453 1.87,0.826 2.87,1.047 0.49,0.159 1.004,0.199 1.512,0.265 0.508,0.087 1.02,0.099 1.534,0.093 l 0.77,-0.001 c 0.227,-0.008 0.511,-0.055 0.764,-0.081 l 0.781,-0.092 c 0.252,-0.049 0.497,-0.106 0.744,-0.167 l 0.737,-0.183 0.723,-0.256 c 0.49,-0.147 0.948,-0.377 1.401,-0.609 0.913,-0.449 1.755,-1.024 2.541,-1.65 0.401,-0.303 0.746,-0.676 1.12,-1.006 0.351,-0.357 0.669,-0.745 1.004,-1.112 0.599,-0.799 1.168,-1.609 1.633,-2.482 0.45,-0.877 0.878,-1.77 1.15,-2.717 0.149,-0.469 0.304,-0.937 0.385,-1.425 l 0.154,-0.724 0.081,-0.735 0.076,-0.737 0.008,-0.742 c 0.003,-0.228 0.017,-0.539 0.011,-0.7 l -0.07,-0.783 -0.07,-0.783 c -0.031,-0.254 -0.096,-0.476 -0.142,-0.717 -0.107,-0.471 -0.16,-0.954 -0.34,-1.427 -0.269,-0.964 -0.675,-1.885 -1.129,-2.787 -0.476,-0.893 -1.042,-1.737 -1.667,-2.553 -0.341,-0.381 -0.673,-0.777 -1.027,-1.154 -0.384,-0.343 -0.752,-0.712 -1.135,-1.072 l 0.134,-0.145 z m -0.021,-0.019 c 0.441,0.287 0.897,0.566 1.338,0.87 0.417,0.331 0.817,0.687 1.23,1.034 0.393,0.366 0.745,0.775 1.123,1.165 0.362,0.403 0.648,0.866 0.977,1.301 0.602,0.905 1.117,1.879 1.498,2.91 0.228,0.497 0.361,1.051 0.505,1.597 0.066,0.271 0.153,0.553 0.199,0.817 l 0.111,0.779 0.111,0.779 c 0.037,0.36 0.026,0.575 0.041,0.871 l 0.018,0.83 -0.063,0.829 -0.073,0.829 -0.151,0.819 c -0.083,0.551 -0.233,1.085 -0.4,1.617 -0.332,1.06 -0.787,2.083 -1.355,3.035 -0.27,0.484 -0.621,0.919 -0.928,1.377 -0.34,0.436 -0.727,0.835 -1.087,1.25 -0.408,0.372 -0.797,0.761 -1.217,1.112 -0.443,0.325 -0.854,0.688 -1.32,0.974 -0.916,0.593 -1.876,1.113 -2.889,1.493 -0.504,0.196 -1.008,0.383 -1.531,0.517 l -0.775,0.222 -0.8,0.149 -0.796,0.15 -0.782,0.076 c -0.269,0.022 -0.504,0.059 -0.8,0.068 l -0.802,-0.003 c -0.535,0.014 -1.07,0.009 -1.601,-0.073 -0.531,-0.066 -1.068,-0.093 -1.588,-0.229 -1.055,-0.197 -2.083,-0.523 -3.088,-0.913 -0.486,-0.23 -0.999,-0.419 -1.468,-0.688 -0.463,-0.28 -0.943,-0.538 -1.395,-0.841 -0.435,-0.325 -0.882,-0.641 -1.31,-0.981 l -1.206,-1.117 c -0.283,-0.263 -0.3,-0.705 -0.038,-0.988 0.228,-0.246 0.591,-0.291 0.868,-0.128 l 0.108,0.064 c 0.742,0.437 1.485,0.863 2.276,1.187 0.789,0.324 1.597,0.599 2.429,0.768 0.413,0.096 0.827,0.181 1.249,0.226 0.422,0.073 0.833,0.101 1.237,0.115 0.389,0.039 0.847,0.019 1.3,0.003 l 0.338,-0.011 c 0.036,-0.003 0.157,-0.002 0.125,-0.007 l 0.157,-0.02 0.627,-0.08 c 0.421,-0.037 0.833,-0.118 1.241,-0.224 0.411,-0.09 0.82,-0.182 1.213,-0.334 0.802,-0.247 1.565,-0.6 2.311,-0.974 0.744,-0.385 1.441,-0.85 2.109,-1.354 l 0.963,-0.806 0.895,-0.884 0.807,-0.967 0.718,-1.036 c 0.441,-0.715 0.85,-1.454 1.17,-2.238 0.317,-0.781 0.583,-1.59 0.76,-2.421 0.117,-0.416 0.169,-0.825 0.22,-1.235 l 0.087,-0.618 0.023,-0.674 0.028,-0.676 0.007,-0.169 c 0.006,0.015 -0.003,-0.088 -0.003,-0.127 l -0.015,-0.322 c -0.019,-0.43 -0.031,-0.863 -0.104,-1.289 -0.05,-0.43 -0.114,-0.859 -0.223,-1.28 -0.082,-0.428 -0.2,-0.847 -0.34,-1.26 -0.259,-0.833 -0.589,-1.652 -0.991,-2.44 -0.396,-0.781 -0.886,-1.53 -1.41,-2.275 -0.034,-0.044 -0.025,-0.107 0.019,-0.141 0.031,-0.031 0.079,-0.03 0.113,-0.01 z" />
            </g>
          </g>
        </g>
      </g>
      <g
         id="g3693">
        <g
           id="g3695">
          <path
             style="fill:#353535"
             inkscape:connector-curvature="0"
             d="m 243.089,300.163 c -46.895,15.347 -65.391,65.11 -65.391,65.11 7.674,9.947 23.305,8.242 23.305,8.242 3.208,-11.651 13.038,-24.607 20.489,-33.204 10.716,-27.267 21.233,-39.712 21.584,-40.123 0.004,-0.007 0.013,-0.025 0.013,-0.025 z"
             id="XMLID_82_" />
        </g>
        <g
           id="g3698">
          <defs
             id="defs3700">
            <path
               inkscape:connector-curvature="0"
               d="m 243.089,300.163 c -46.895,15.347 -65.391,65.11 -65.391,65.11 7.674,9.947 23.305,8.242 23.305,8.242 3.208,-11.651 13.038,-24.607 20.489,-33.204 10.716,-27.267 21.233,-39.712 21.584,-40.123 0.004,-0.007 0.013,-0.025 0.013,-0.025 z"
               id="SVGID_4_" />
          </defs>
          <clipPath
             id="clipPath4310">
            <use
               height="1052.3622"
               width="744.09448"
               y="0"
               x="0"
               style="overflow:visible"
               id="use4312"
               overflow="visible"
               xlink:href="#SVGID_4_" />
          </clipPath>
          <g
             clip-path="url(#SVGID_5_)"
             id="XMLID_83_">
            <g
               id="g3707">
              <path
                 style="fill:#262626"
                 inkscape:connector-curvature="0"
                 id="path3709"
                 d="m 253.719,325.206 -5.712,-16.29 -10.638,-4.654 0.198,-0.435 10.379,4.916 -4.154,-11.848 c 0.876,-0.307 1.764,-0.607 2.662,-0.902 l 33.167,-10.866 -14.941,31.542 -13.544,-6.384 4.658,14.218 c -0.7,0.229 -1.392,0.463 -2.075,0.703 z" />
            </g>
            <g
               id="g3711">
              <path
                 style="fill:#262626"
                 inkscape:connector-curvature="0"
                 id="path3713"
                 d="m 201.653,375.476 -28.064,-10.602 c 0.687,-1.819 1.375,-3.532 2.104,-5.236 l 27.586,11.789 c -0.559,1.309 -1.091,2.632 -1.626,4.049 z m 2.673,-6.408 -27.244,-12.561 c 0.802,-1.739 1.652,-3.471 2.526,-5.147 l 26.599,13.875 c -0.651,1.245 -1.283,2.535 -1.881,3.833 z m 3.092,-6.074 -26.167,-14.672 c 0.94,-1.678 1.931,-3.345 2.944,-4.954 l 25.388,15.984 c -0.744,1.181 -1.472,2.406 -2.165,3.642 z m 3.549,-5.769 -24.881,-16.762 c 1.077,-1.599 2.208,-3.185 3.359,-4.715 l 23.965,18.047 c -0.837,1.112 -1.659,2.266 -2.443,3.43 z m 3.991,-5.419 -23.375,-18.805 c 1.211,-1.505 2.474,-2.992 3.752,-4.419 l 22.342,20.021 c -0.926,1.033 -1.84,2.11 -2.719,3.203 z m 4.428,-5.05 -21.688,-20.729 c 1.33,-1.392 2.715,-2.766 4.116,-4.083 l 20.553,21.854 c -1.015,0.954 -2.018,1.949 -2.981,2.958 z m 4.842,-4.652 -19.841,-22.502 c 1.442,-1.271 2.936,-2.521 4.439,-3.712 l 18.631,23.514 c -1.093,0.866 -2.18,1.775 -3.229,2.7 z m 5.237,-4.239 -17.888,-24.084 c 1.528,-1.135 3.116,-2.252 4.719,-3.319 l 16.625,24.973 c -1.176,0.782 -2.339,1.6 -3.456,2.43 z m 5.599,-3.812 -15.868,-25.459 c 1.609,-1.003 3.272,-1.983 4.944,-2.914 l 14.591,26.213 c -1.241,0.69 -2.475,1.418 -3.667,2.16 z m 5.93,-3.378 -13.837,-26.619 c 1.663,-0.864 3.385,-1.708 5.119,-2.509 l 12.574,27.238 c -1.309,0.605 -2.607,1.241 -3.856,1.89 z m 6.227,-2.944 -11.836,-27.566 c 1.712,-0.735 3.475,-1.446 5.239,-2.114 l 10.625,28.055 c -1.359,0.514 -2.715,1.06 -4.028,1.625 z" />
            </g>
            <g
               id="g3715">
              <path
                 style="fill:#262626"
                 inkscape:connector-curvature="0"
                 id="path3717"
                 d="m 199.793,380.586 -28.12,-10.453 c 0.153,-0.412 0.325,-0.894 0.52,-1.438 l 0.269,-0.751 28.237,10.133 -0.255,0.713 c -0.244,0.68 -0.46,1.283 -0.651,1.796 z" />
            </g>
          </g>
        </g>
      </g>
      <g
         id="g3719">
        <g
           id="g3721">
          <path
             style="fill:#353535"
             inkscape:connector-curvature="0"
             d="m 268.444,300.166 c 46.895,15.347 65.391,65.11 65.391,65.11 -7.674,9.947 -23.305,8.242 -23.305,8.242 -3.208,-11.651 -13.038,-24.607 -20.489,-33.204 -10.716,-27.267 -21.233,-39.712 -21.584,-40.123 -0.005,-0.007 -0.013,-0.025 -0.013,-0.025 z"
             id="XMLID_78_" />
        </g>
        <g
           id="g3724">
          <defs
             id="defs3726">
            <path
               inkscape:connector-curvature="0"
               d="m 268.444,300.166 c 46.895,15.347 65.391,65.11 65.391,65.11 -7.674,9.947 -23.305,8.242 -23.305,8.242 -3.208,-11.651 -13.038,-24.607 -20.489,-33.204 -10.716,-27.267 -21.233,-39.712 -21.584,-40.123 -0.005,-0.007 -0.013,-0.025 -0.013,-0.025 z"
               id="SVGID_6_" />
          </defs>
          <clipPath
             id="clipPath4327">
            <use
               height="1052.3622"
               width="744.09448"
               y="0"
               x="0"
               style="overflow:visible"
               id="use4329"
               overflow="visible"
               xlink:href="#SVGID_6_" />
          </clipPath>
          <g
             clip-path="url(#SVGID_7_)"
             id="XMLID_79_">
            <g
               id="g3733">
              <path
                 style="fill:#262626"
                 inkscape:connector-curvature="0"
                 id="path3735"
                 d="m 257.826,325.212 c -0.682,-0.238 -1.373,-0.473 -2.071,-0.7 l 4.642,-14.223 -13.404,6.671 -16.053,-32.105 34.124,11.138 c 0.899,0.294 1.787,0.595 2.664,0.901 l -4.11,11.754 10.208,-5.104 0.338,0.721 -10.641,4.656 -5.697,16.291 z" />
            </g>
            <g
               id="g3737">
              <path
                 style="fill:#262626"
                 inkscape:connector-curvature="0"
                 id="path3739"
                 d="m 309.88,375.479 c -0.535,-1.417 -1.067,-2.74 -1.625,-4.049 l 27.586,-11.789 c 0.729,1.704 1.416,3.417 2.104,5.236 l -28.065,10.602 z m -2.673,-6.408 c -0.598,-1.298 -1.231,-2.588 -1.881,-3.833 l 26.599,-13.875 c 0.874,1.677 1.725,3.408 2.526,5.147 l -27.244,12.561 z m -3.092,-6.075 c -0.693,-1.235 -1.421,-2.461 -2.165,-3.642 l 25.387,-15.984 c 1.014,1.609 2.004,3.276 2.945,4.954 l -26.167,14.672 z m -3.549,-5.767 c -0.784,-1.164 -1.606,-2.318 -2.443,-3.43 l 23.965,-18.047 c 1.152,1.53 2.283,3.116 3.359,4.715 l -24.881,16.762 z m -3.99,-5.419 c -0.879,-1.093 -1.793,-2.17 -2.719,-3.202 l 22.342,-20.021 c 1.279,1.427 2.541,2.914 3.752,4.419 l -23.375,18.804 z m -4.429,-5.05 c -0.964,-1.009 -1.967,-2.004 -2.981,-2.958 l 20.553,-21.854 c 1.401,1.317 2.786,2.691 4.116,4.083 l -21.688,20.729 z m -4.842,-4.653 c -1.049,-0.925 -2.136,-1.834 -3.229,-2.7 l 18.631,-23.514 c 1.504,1.191 2.998,2.44 4.439,3.712 l -19.841,22.502 z m -5.237,-4.239 c -1.117,-0.83 -2.28,-1.647 -3.457,-2.431 l 16.625,-24.973 c 1.603,1.067 3.191,2.185 4.719,3.319 l -17.887,24.085 z m -5.599,-3.812 c -1.192,-0.742 -2.425,-1.47 -3.667,-2.16 l 14.591,-26.213 c 1.671,0.931 3.335,1.911 4.944,2.914 l -15.868,25.459 z m -5.931,-3.378 c -1.249,-0.649 -2.546,-1.285 -3.856,-1.89 l 12.574,-27.238 c 1.733,0.801 3.456,1.645 5.119,2.509 l -13.837,26.619 z m -6.226,-2.944 c -1.313,-0.564 -2.669,-1.111 -4.027,-1.626 l 10.625,-28.055 c 1.764,0.668 3.527,1.379 5.239,2.114 l -11.837,27.567 z" />
            </g>
            <g
               id="g3741">
              <path
                 style="fill:#262626"
                 inkscape:connector-curvature="0"
                 id="path3743"
                 d="m 311.746,380.605 c -0.199,-0.532 -0.423,-1.158 -0.677,-1.869 l -0.237,-0.661 28.241,-10.123 0.248,0.694 c 0.2,0.56 0.376,1.053 0.532,1.473 l -28.107,10.486 z" />
            </g>
          </g>
        </g>
      </g>
      <path
         style="fill:#f4f4f4"
         inkscape:connector-curvature="0"
         id="path3745"
         d="m 310.529,373.515 c 0,0 15.632,1.705 23.305,-8.242 17.053,15.916 1.137,25.011 1.137,25.011 -12.505,5.4 -15.063,-5.684 -15.063,-5.684 0.853,8.526 -5.684,7.105 -5.684,7.105 -6.495,-1.412 -3.791,-18.177 -3.756,-18.392 0.018,0.067 0.042,0.135 0.061,0.202 z" />
      <path
         style="opacity:0.1;fill:#262626"
         inkscape:connector-curvature="0"
         id="path3747"
         d="m 329.677,388.637 c 0,0 13.457,-7.707 2.318,-21.339 0.649,-0.617 1.268,-1.285 1.839,-2.025 17.053,15.916 1.137,25.011 1.137,25.011 -5.578,2.409 -9.173,1.535 -11.448,-0.169 1.72,-0.016 3.752,-0.441 6.154,-1.478 z"
         enable-background="new    " />
      <g
         id="g3749">
        <path
           inkscape:connector-curvature="0"
           style="fill:#52b095"
           d="m 257.244,368.898 7.563,-22.008 4.056,0 -7.661,22.008 z"
           id="polygon3751" />
        <path
           inkscape:connector-curvature="0"
           style="fill:#ffffff"
           d="m 259.541,357.905 -2.592,-8.471 -3.913,0 -2.976,9.648 -3.312,-9.648 -4.055,0 5.856,16.776 2.783,0 3.648,-11.664 2.733,8.678 z"
           id="polygon3753" />
        <path
           inkscape:connector-curvature="0"
           style="fill:#52b095"
           d="m 229.318,359.465 0,-3.287 11.664,-5.496 0,3.528 -7.704,3.552 7.704,3.648 0,3.551 z"
           id="polygon3755" />
        <path
           inkscape:connector-curvature="0"
           style="fill:#52b095"
           d="m 282.23,356.178 0,3.287 -11.664,5.497 0,-3.552 7.704,-3.648 -7.704,-3.552 0,-3.528 z"
           id="polygon3757" />
      </g>
      <g
         style="opacity:0.05"
         id="g3759">
        <path
           style="fill:#ffffff"
           inkscape:connector-curvature="0"
           id="path3761"
           d="m 231.781,324.835 c 0,0 -0.34,1.046 -0.979,2.857 -0.658,1.804 -1.545,4.403 -2.704,7.483 -0.582,1.539 -1.213,3.205 -1.881,4.968 -0.678,1.759 -1.231,3.662 -1.923,5.589 -0.671,1.934 -1.337,3.942 -2.063,5.963 -0.359,1.012 -0.721,2.032 -1.084,3.056 -0.313,1.042 -0.627,2.087 -0.941,3.133 -0.65,2.084 -1.3,4.169 -1.94,6.22 -0.677,2.043 -1.191,4.091 -1.723,6.067 -0.511,1.98 -1.081,3.879 -1.542,5.697 -0.399,1.83 -0.801,3.557 -1.176,5.153 -0.4,1.593 -0.639,3.072 -0.898,4.38 -0.247,1.309 -0.487,2.452 -0.586,3.402 -0.114,0.949 -0.259,1.694 -0.307,2.205 -0.05,0.512 -0.077,0.786 -0.077,0.786 0,0 -0.078,-1.098 -0.004,-3.024 0.002,-0.968 0.123,-2.128 0.235,-3.467 0.119,-1.337 0.206,-2.859 0.505,-4.482 0.252,-1.632 0.529,-3.402 0.848,-5.271 0.367,-1.857 0.825,-3.799 1.293,-5.811 0.487,-2.006 0.894,-4.11 1.574,-6.168 0.624,-2.075 1.257,-4.184 1.891,-6.292 0.328,-1.051 0.656,-2.101 0.982,-3.148 0.378,-1.03 0.754,-2.056 1.127,-3.074 0.741,-2.038 1.519,-4.026 2.245,-5.957 0.742,-1.924 1.42,-3.805 2.188,-5.526 0.78,-1.716 1.518,-3.339 2.199,-4.836 1.367,-2.993 2.586,-5.454 3.402,-7.193 0.836,-1.731 1.339,-2.71 1.339,-2.71 z" />
      </g>
      <path
         style="opacity:0.1;fill:#262626"
         inkscape:connector-curvature="0"
         id="path3763"
         d="m 276.408,311.852 c -4.698,-7.945 -7.915,-11.689 -7.915,-11.689 h -12.697 -12.697 c 0,0 -0.016,0.019 -0.022,0.026 24.253,2.163 36.844,17.998 36.844,17.998 l -3.513,-6.335 z"
         enable-background="new    " />
      <path
         style="fill:none;stroke:#262626;stroke-width:2;stroke-linecap:round;stroke-linejoin:round;stroke-miterlimit:10"
         inkscape:connector-curvature="0"
         id="path3765"
         d="m 214.652,281.18 c 40.941,11.615 76.69,-4.256 76.69,-4.256"
         stroke-miterlimit="10" />
    </g>
  </g>
</svg>
